<?xml version="1.0" encoding="iso-8859-1"?>
<!-- Generator: Adobe Illustrator 19.2.0, SVG Export Plug-In . SVG Version: 6.00 Build 0)  -->
<svg version="1.1"  xmlns="http://www.w3.org/2000/svg" xmlns:xlink="http://www.w3.org/1999/xlink" x="0px" y="0px"
	 viewBox="0 0 48 48" style="enable-background:new 0 0 48 48;" xml:space="preserve">
<path style="fill:#2980B9;" d="M19.75,22.083c-2.34,1.19-3.601,2.619-4.604,5.063l0.959,0.959l13.07,13.07
	c1.802-0.74,3.361-1.946,4.532-3.467c0.416-0.541-0.144-1.469,0.168-2.083l-0.574-1.154l-6.885-6.885L19.75,22.083z"/>
<path style="fill:#E74C3C;" d="M27,9.103c-1.657,0-3,1.343-3,3c0,0.048,0.012,0.093,0.014,0.141L25,12.103l4.673,1.335
	C29.876,13.035,30,12.586,30,12.103C30,10.446,28.657,9.103,27,9.103z"/>
<path style="fill:#E74C3C;" d="M23,9.103c-1.657,0-3,1.343-3,3c0,0.243,0.037,0.475,0.091,0.701L25,12.103l0.972,0.278
	C25.981,12.288,26,12.198,26,12.103C26,10.446,24.657,9.103,23,9.103z"/>
<path style="fill:#E74C3C;" d="M15.167,13.159L18,14.103l2.957-0.422c-0.207-1.455-1.445-2.578-2.957-2.578
	C16.675,11.103,15.564,11.968,15.167,13.159z"/>
<path style="fill:#E74C3C;" d="M34.554,12.549c-0.527-0.864-1.469-1.446-2.554-1.446c-1.657,0-3,1.343-3,3
	c0,0.05,0.012,0.097,0.015,0.147L32,15.103L34.554,12.549z"/>
<path style="fill:#F1C40F;" d="M30,6.103c-0.25,0-0.39,0.03-0.5,0.05c-0.89-1.02-2.12-1.72-3.5-1.96v-2.09h-2v2.09
	c-1.38,0.24-2.61,0.94-3.5,1.96c-0.11-0.02-0.25-0.05-0.5-0.05c-3.3,0-6,2.7-6,6c0,0.75,0.31,1.4,0.71,1.87
	c0.4,0.47,0.89,0.78,1.34,1.01c0.16,0.08,0.31,0.14,0.46,0.2c0.11,0.54,0.63,0.9,1.17,0.8c0.14-0.03,0.27-0.09,0.39-0.17
	c0,0,2.45-1.71,6.93-1.71s6.93,1.71,6.93,1.71c0.46,0.32,1.08,0.21,1.4-0.24c0.08-0.12,0.13-0.25,0.16-0.39
	c0.15-0.06,0.3-0.12,0.46-0.2c0.45-0.23,0.94-0.54,1.34-1.01c0.4-0.47,0.71-1.12,0.71-1.87C36,8.803,33.3,6.103,30,6.103z
	 M18.03,13.583c-0.18-0.04-0.6-0.14-1.08-0.39c-0.3-0.15-0.56-0.34-0.72-0.53c-0.16-0.18-0.23-0.33-0.23-0.56
	c0-1.99,1.43-3.62,3.33-3.93c-0.21,0.6-0.33,1.25-0.33,1.93c0,1.02,0.27,1.99,0.72,2.83C19.04,13.153,18.47,13.373,18.03,13.583z
	 M28.24,12.403c-0.96-0.18-2.04-0.3-3.24-0.3s-2.28,0.12-3.24,0.3c-0.47-0.65-0.76-1.43-0.76-2.3c0-2.22,1.78-4,4-4s4,1.78,4,4
	C29,10.973,28.71,11.753,28.24,12.403z M33.77,12.663c-0.16,0.19-0.42,0.38-0.72,0.53c-0.48,0.25-0.9,0.35-1.08,0.39
	c-0.44-0.21-1.01-0.43-1.69-0.65c0.45-0.84,0.72-1.81,0.72-2.83c0-0.68-0.12-1.33-0.33-1.93c1.9,0.31,3.33,1.94,3.33,3.93
	C34,12.333,33.93,12.483,33.77,12.663z"/>
<rect x="24" y="5.103" style="fill:#F1C40F;" width="2" height="8"/>
<path style="fill:#F1C40F;" d="M25,18c7.168,0,13,5.832,13,13s-5.832,13-13,13s-13-5.832-13-13S17.832,18,25,18 M25,16
	c-8.276,0-15,6.724-15,15s6.724,15,15,15s15-6.724,15-15S33.276,16,25,16L25,16z"/>
<path style="fill:#F1C40F;" d="M36,31c0,2.53-0.85,4.86-2.29,6.71l-1.43-1.43C33.36,34.8,34,32.97,34,31c0-2.99-1.47-5.64-3.72-7.28
	L25,29l-5.28-5.28C17.47,25.36,16,28.01,16,31c0,1.97,0.64,3.8,1.72,5.28l-1.43,1.43C14.85,35.86,14,33.53,14,31
	c0-3.55,1.68-6.71,4.29-8.71c0.54-0.42,1.12-0.79,1.73-1.1l3.978,3.978L25,25l1.17,0l3.81-3.81c0.61,0.31,1.19,0.68,1.73,1.1
	C34.32,24.29,36,27.45,36,31z"/>
<path style="fill:#F1C40F;" d="M29.26,33.61l1.58,1.26C29.58,36.76,27.44,38,25,38c-3.87,0-7-3.13-7-7s3.13-7,7-7
	c2.44,0,4.58,1.24,5.84,3.13l-1.58,1.26C28.38,26.96,26.8,26,25,26c-2.76,0-5,2.24-5,5s2.24,5,5,5C26.8,36,28.38,35.04,29.26,33.61z
	"/>
<g>
	<polygon style="fill:#F1C40F;" points="24,40 22,40 22,30 27,30 27,32 24,32 	"/>
</g>
<g>
	<rect x="23" y="33" style="fill:#F1C40F;" width="4" height="2"/>
</g>
</svg>
